<svg width="28" height="20" viewBox="0 0 28 20" fill="none" xmlns="http://www.w3.org/2000/svg">
<path d="M23.1909 1.61619L3.86063 17.8362C3.50494 18.1346 3.45855 18.6655 3.75696 19.0212C4.05542 19.3768 4.5863 19.4232 4.94194 19.1248L24.2722 2.90484C24.6279 2.60638 24.6743 2.0755 24.3758 1.71986C24.0774 1.36413 23.5466 1.31773 23.1909 1.61619Z" fill="black"/>
<path d="M3.6451 2.82769L22.9782 19.0501C23.3339 19.3486 23.8645 19.3025 24.1625 18.9473C24.4606 18.5921 24.4138 18.0616 24.0581 17.7631L4.72499 1.54073C4.3693 1.24227 3.83869 1.28825 3.54062 1.64348C3.24256 1.9987 3.28941 2.52923 3.6451 2.82769Z" fill="black"/>
</svg>
